{
  "version": "1.1.6",
  "modules": [
    {
      "id": 1,
      "plugin": "Core",
      "version": "1.1.6",
      "model": "AudioInterface",
      "params": [],
      "leftModuleId": 46,
      "data": {
        "audio": {
          "driver": 8,
          "deviceName": "Default Device",
          "offset": 0,
          "maxChannels": 8,
          "sampleRate": 44100,
          "blockSize": 512
        }
      },
      "pos": [
        112,
        1
      ]
    },
    {
      "id": 5,
      "plugin": "Core",
      "version": "1.1.6",
      "model": "MIDIToCVInterface",
      "params": [],
      "leftModuleId": 26,
      "rightModuleId": 28,
      "data": {
        "channels": 1,
        "polyMode": 0,
        "clockDivision": 2,
        "lastPitch": 8192,
        "lastMod": 0,
        "midi": {
          "driver": 4,
          "channel": -1
        }
      },
      "pos": [
        10,
        1
      ]
    },
    {
      "id": 9,
      "plugin": "Core",
      "version": "1.1.6",
      "model": "MIDIToCVInterface",
      "params": [],
      "leftModuleId": 19,
      "rightModuleId": 16,
      "data": {
        "channels": 8,
        "polyMode": 2,
        "clockDivision": 24,
        "lastPitch": 8192,
        "lastMod": 0,
        "midi": {
          "driver": 4,
          "deviceName": "MPKmini2 0",
          "channel": -1
        }
      },
      "pos": [
        10,
        2
      ]
    },
    {
      "id": 16,
      "plugin": "Fundamental",
      "version": "1.4.0",
      "model": "VCO",
      "params": [
        {
          "id": 0,
          "value": 0.0
        },
        {
          "id": 1,
          "value": 0.0
        },
        {
          "id": 2,
          "value": 0.0
        },
        {
          "id": 3,
          "value": 0.0
        },
        {
          "id": 4,
          "value": 0.0
        },
        {
          "id": 5,
          "value": 0.5
        },
        {
          "id": 6,
          "value": 0.0
        }
      ],
      "leftModuleId": 9,
      "rightModuleId": 35,
      "pos": [
        18,
        2
      ]
    },
    {
      "id": 19,
      "plugin": "Core",
      "version": "1.1.6",
      "model": "MIDICCToCVInterface",
      "params": [],
      "rightModuleId": 9,
      "data": {
        "ccs": [
          1,
          2,
          3,
          4,
          5,
          6,
          7,
          8,
          8,
          9,
          10,
          11,
          12,
          13,
          14,
          15
        ],
        "values": [
          0,
          0,
          9,
          71,
          41,
          0,
          35,
          34,
          43,
          0,
          0,
          0,
          0,
          0,
          0,
          0,
          0,
          0,
          0,
          0,
          0,
          0,
          0,
          0,
          0,
          0,
          0,
          0,
          0,
          0,
          0,
          0,
          0,
          0,
          0,
          0,
          0,
          0,
          0,
          0,
          0,
          0,
          0,
          0,
          0,
          0,
          0,
          0,
          0,
          0,
          0,
          0,
          0,
          0,
          0,
          0,
          0,
          0,
          0,
          0,
          0,
          0,
          0,
          0,
          0,
          0,
          0,
          0,
          0,
          0,
          0,
          0,
          0,
          0,
          0,
          0,
          0,
          0,
          0,
          0,
          0,
          0,
          0,
          0,
          0,
          0,
          0,
          0,
          0,
          0,
          0,
          0,
          0,
          0,
          0,
          0,
          0,
          0,
          0,
          0,
          0,
          0,
          0,
          0,
          0,
          0,
          0,
          0,
          0,
          0,
          0,
          0,
          0,
          0,
          0,
          0,
          0,
          0,
          0,
          0,
          0,
          0,
          0,
          0,
          0,
          0,
          0,
          0
        ],
        "midi": {
          "driver": 4,
          "deviceName": "MPKmini2 0",
          "channel": -1
        }
      },
      "pos": [
        0,
        2
      ]
    },
    {
      "id": 25,
      "plugin": "Bogaudio",
      "version": "1.1.37",
      "model": "Bogaudio-Mix4",
      "params": [
        {
          "id": 0,
          "value": 0.919591248
        },
        {
          "id": 1,
          "value": 0.0
        },
        {
          "id": 2,
          "value": 0.0
        },
        {
          "id": 3,
          "value": 0.909090936
        },
        {
          "id": 4,
          "value": 0.0
        },
        {
          "id": 5,
          "value": 0.0
        },
        {
          "id": 6,
          "value": 0.909090936
        },
        {
          "id": 7,
          "value": 0.0
        },
        {
          "id": 8,
          "value": 0.0
        },
        {
          "id": 9,
          "value": 0.909090936
        },
        {
          "id": 10,
          "value": 0.0
        },
        {
          "id": 11,
          "value": 0.0
        },
        {
          "id": 12,
          "value": 0.769589961
        },
        {
          "id": 13,
          "value": 0.0
        },
        {
          "id": 14,
          "value": 0.0
        }
      ],
      "rightModuleId": 46,
      "data": {
        "dim_decibels": 12.0,
        "poly_channel_offset": -1
      },
      "pos": [
        91,
        1
      ]
    },
    {
      "id": 26,
      "plugin": "Core",
      "version": "1.1.6",
      "model": "MIDICCToCVInterface",
      "params": [],
      "rightModuleId": 5,
      "data": {
        "ccs": [
          90,
          91,
          92,
          93,
          114,
          71,
          16,
          94,
          8,
          9,
          10,
          11,
          27,
          26,
          14,
          15
        ],
        "values": [
          0,
          0,
          0,
          37,
          71,
          69,
          49,
          48,
          42,
          0,
          0,
          0,
          0,
          0,
          64,
          0,
          63,
          64,
          29,
          0,
          0,
          0,
          0,
          0,
          0,
          127,
          50,
          57,
          0,
          0,
          0,
          0,
          0,
          0,
          0,
          0,
          0,
          0,
          0,
          0,
          1,
          0,
          0,
          0,
          0,
          0,
          0,
          0,
          0,
          0,
          0,
          0,
          0,
          0,
          0,
          0,
          0,
          64,
          0,
          0,
          0,
          0,
          0,
          0,
          0,
          0,
          0,
          0,
          0,
          0,
          0,
          71,
          0,
          0,
          0,
          0,
          67,
          0,
          127,
          0,
          0,
          0,
          0,
          0,
          0,
          0,
          0,
          13,
          0,
          0,
          20,
          38,
          68,
          34,
          51,
          0,
          0,
          0,
          0,
          0,
          0,
          0,
          5,
          0,
          0,
          0,
          0,
          0,
          0,
          0,
          0,
          0,
          0,
          0,
          62,
          0,
          0,
          63,
          0,
          0,
          0,
          0,
          0,
          0,
          0,
          0,
          0,
          0
        ],
        "midi": {
          "driver": 4,
          "channel": -1
        }
      },
      "pos": [
        0,
        1
      ]
    },
    {
      "id": 28,
      "plugin": "VultModulesFree",
      "version": "1.15",
      "model": "Basal",
      "params": [
        {
          "id": 0,
          "value": 0.0
        },
        {
          "id": 1,
          "value": 0.0
        },
        {
          "id": 2,
          "value": 0.223500013
        },
        {
          "id": 3,
          "value": 0.894999981
        },
        {
          "id": 4,
          "value": 0.709500015
        },
        {
          "id": 5,
          "value": 0.840999901
        }
      ],
      "leftModuleId": 5,
      "rightModuleId": 47,
      "pos": [
        18,
        1
      ]
    },
    {
      "id": 32,
      "plugin": "Fundamental",
      "version": "1.4.0",
      "model": "VCA-1",
      "params": [
        {
          "id": 0,
          "value": 1.0
        },
        {
          "id": 1,
          "value": 1.0
        }
      ],
      "leftModuleId": 48,
      "pos": [
        59,
        1
      ]
    },
    {
      "id": 34,
      "plugin": "Fundamental",
      "version": "1.4.0",
      "model": "VCA-1",
      "params": [
        {
          "id": 0,
          "value": 1.0
        },
        {
          "id": 1,
          "value": 1.0
        }
      ],
      "leftModuleId": 35,
      "rightModuleId": 37,
      "pos": [
        36,
        2
      ]
    },
    {
      "id": 35,
      "plugin": "Fundamental",
      "version": "1.4.0",
      "model": "ADSR",
      "params": [
        {
          "id": 0,
          "value": 0.0
        },
        {
          "id": 1,
          "value": 0.0
        },
        {
          "id": 2,
          "value": 0.0
        },
        {
          "id": 3,
          "value": 0.0
        }
      ],
      "leftModuleId": 16,
      "rightModuleId": 34,
      "pos": [
        28,
        2
      ]
    },
    {
      "id": 36,
      "plugin": "Fundamental",
      "version": "1.4.0",
      "model": "ADSR",
      "params": [
        {
          "id": 0,
          "value": 0.0
        },
        {
          "id": 1,
          "value": 0.0
        },
        {
          "id": 2,
          "value": 0.0
        },
        {
          "id": 3,
          "value": 0.0
        }
      ],
      "leftModuleId": 51,
      "rightModuleId": 48,
      "pos": [
        41,
        1
      ]
    },
    {
      "id": 37,
      "plugin": "Fundamental",
      "version": "1.4.0",
      "model": "VCF",
      "params": [
        {
          "id": 0,
          "value": 0.5
        },
        {
          "id": 1,
          "value": 0.5
        },
        {
          "id": 2,
          "value": 0.0
        },
        {
          "id": 3,
          "value": 1.0
        },
        {
          "id": 4,
          "value": 0.0
        }
      ],
      "leftModuleId": 34,
      "pos": [
        39,
        2
      ]
    },
    {
      "id": 39,
      "plugin": "AudibleInstruments",
      "version": "1.5.0",
      "model": "Rings",
      "params": [
        {
          "id": 0,
          "value": 0.0
        },
        {
          "id": 1,
          "value": 0.0
        },
        {
          "id": 2,
          "value": 30.0
        },
        {
          "id": 3,
          "value": 0.122001372
        },
        {
          "id": 4,
          "value": 0.5
        },
        {
          "id": 5,
          "value": 0.344999701
        },
        {
          "id": 6,
          "value": 0.360500604
        },
        {
          "id": 7,
          "value": -0.0329999737
        },
        {
          "id": 8,
          "value": 0.0
        },
        {
          "id": 9,
          "value": 1.0
        },
        {
          "id": 10,
          "value": 1.0
        },
        {
          "id": 11,
          "value": 1.0
        }
      ],
      "data": {
        "polyphony": 1,
        "model": 1,
        "easterEgg": false
      },
      "pos": [
        77,
        2
      ]
    },
    {
      "id": 42,
      "plugin": "AudibleInstruments",
      "version": "1.5.0",
      "model": "Marbles",
      "params": [
        {
          "id": 0,
          "value": 0.0
        },
        {
          "id": 1,
          "value": 0.0
        },
        {
          "id": 2,
          "value": 0.5
        },
        {
          "id": 3,
          "value": -0.40500024
        },
        {
          "id": 4,
          "value": 0.609499931
        },
        {
          "id": 5,
          "value": 0.0
        },
        {
          "id": 6,
          "value": 0.0
        },
        {
          "id": 7,
          "value": 0.0
        },
        {
          "id": 8,
          "value": 0.5
        },
        {
          "id": 9,
          "value": 0.5
        },
        {
          "id": 10,
          "value": 0.0
        },
        {
          "id": 11,
          "value": 0.0
        },
        {
          "id": 12,
          "value": 0.0
        },
        {
          "id": 13,
          "value": 0.305999994
        },
        {
          "id": 14,
          "value": 0.591499925
        }
      ],
      "data": {
        "t_deja_vu": false,
        "x_deja_vu": false,
        "t_mode": 0,
        "x_mode": 0,
        "t_range": 1,
        "x_range": 1,
        "external": false,
        "x_scale": 0,
        "y_divider_index": 8,
        "x_clock_source_internal": 0
      },
      "pos": [
        99,
        2
      ]
    },
    {
      "id": 44,
      "plugin": "Fundamental",
      "version": "1.4.0",
      "model": "Delay",
      "params": [
        {
          "id": 0,
          "value": 0.61700052
        },
        {
          "id": 1,
          "value": 0.584499657
        },
        {
          "id": 2,
          "value": 0.767499983
        },
        {
          "id": 3,
          "value": 1.0
        }
      ],
      "pos": [
        60,
        2
      ]
    },
    {
      "id": 46,
      "plugin": "AS",
      "version": "1.0.4",
      "model": "ReverbStereoFx",
      "params": [
        {
          "id": 0,
          "value": 0.773000181
        },
        {
          "id": 1,
          "value": 0.650000453
        },
        {
          "id": 2,
          "value": 0.747999847
        },
        {
          "id": 3,
          "value": 0.0
        }
      ],
      "leftModuleId": 25,
      "rightModuleId": 1,
      "data": {
        "as_FxBypass": [
          true
        ]
      },
      "pos": [
        106,
        1
      ]
    },
    {
      "id": 47,
      "plugin": "VultModulesFree",
      "version": "1.15",
      "model": "Basal",
      "params": [
        {
          "id": 0,
          "value": 0.0
        },
        {
          "id": 1,
          "value": 0.0
        },
        {
          "id": 2,
          "value": 0.460500002
        },
        {
          "id": 3,
          "value": -0.608999968
        },
        {
          "id": 4,
          "value": 0.32250002
        },
        {
          "id": 5,
          "value": 0.513000071
        }
      ],
      "leftModuleId": 28,
      "rightModuleId": 49,
      "pos": [
        24,
        1
      ]
    },
    {
      "id": 48,
      "plugin": "VultModulesFree",
      "version": "1.15",
      "model": "Tangents",
      "params": [
        {
          "id": 0,
          "value": 0.585000038
        },
        {
          "id": 1,
          "value": 0.29400003
        },
        {
          "id": 2,
          "value": 0.223000079
        },
        {
          "id": 3,
          "value": 0.18400003
        },
        {
          "id": 4,
          "value": 0.459000021
        },
        {
          "id": 5,
          "value": 0.191999987
        },
        {
          "id": 6,
          "value": 0.0
        }
      ],
      "leftModuleId": 36,
      "rightModuleId": 32,
      "pos": [
        49,
        1
      ]
    },
    {
      "id": 49,
      "plugin": "VultModulesFree",
      "version": "1.15",
      "model": "Basal",
      "params": [
        {
          "id": 0,
          "value": 0.0
        },
        {
          "id": 1,
          "value": 0.0
        },
        {
          "id": 2,
          "value": 0.445499927
        },
        {
          "id": 3,
          "value": 0.810000122
        },
        {
          "id": 4,
          "value": 0.352499992
        },
        {
          "id": 5,
          "value": -0.744000196
        }
      ],
      "leftModuleId": 47,
      "pos": [
        30,
        1
      ]
    },
    {
      "id": 50,
      "plugin": "Bogaudio",
      "version": "1.1.37",
      "model": "Bogaudio-FourFO",
      "params": [
        {
          "id": 0,
          "value": 0.819000006
        },
        {
          "id": 1,
          "value": 3.0
        },
        {
          "id": 2,
          "value": 1.0
        },
        {
          "id": 3,
          "value": 0.131999999
        },
        {
          "id": 4,
          "value": 0.0
        },
        {
          "id": 5,
          "value": 0.0
        },
        {
          "id": 6,
          "value": 1.0
        },
        {
          "id": 7,
          "value": -0.206999987
        },
        {
          "id": 8,
          "value": -0.318000019
        },
        {
          "id": 9,
          "value": 0.192000017
        },
        {
          "id": 10,
          "value": -0.333000004
        }
      ],
      "data": {},
      "pos": [
        26,
        0
      ]
    },
    {
      "id": 51,
      "plugin": "ML_modules",
      "version": "1.1.3",
      "model": "Sum8",
      "params": [],
      "rightModuleId": 36,
      "pos": [
        38,
        1
      ]
    },
    {
      "id": 52,
      "plugin": "Bogaudio",
      "version": "1.1.37",
      "model": "Bogaudio-FourFO",
      "params": [
        {
          "id": 0,
          "value": 0.0
        },
        {
          "id": 1,
          "value": 3.0
        },
        {
          "id": 2,
          "value": 1.0
        },
        {
          "id": 3,
          "value": 0.210000008
        },
        {
          "id": 4,
          "value": 0.154499978
        },
        {
          "id": 5,
          "value": 0.0
        },
        {
          "id": 6,
          "value": 1.0
        },
        {
          "id": 7,
          "value": 0.0
        },
        {
          "id": 8,
          "value": 0.0
        },
        {
          "id": 9,
          "value": 0.0
        },
        {
          "id": 10,
          "value": 0.0
        }
      ],
      "data": {},
      "pos": [
        49,
        0
      ]
    }
  ],
  "cables": [
    {
      "id": 19,
      "outputModuleId": 9,
      "outputId": 0,
      "inputModuleId": 16,
      "inputId": 0,
      "color": "#c91847"
    },
    {
      "id": 65,
      "outputModuleId": 5,
      "outputId": 0,
      "inputModuleId": 28,
      "inputId": 0,
      "color": "#0986ad"
    },
    {
      "id": 101,
      "outputModuleId": 19,
      "outputId": 0,
      "inputModuleId": 35,
      "inputId": 0,
      "color": "#c9b70e"
    },
    {
      "id": 102,
      "outputModuleId": 19,
      "outputId": 1,
      "inputModuleId": 35,
      "inputId": 1,
      "color": "#0c8e15"
    },
    {
      "id": 103,
      "outputModuleId": 19,
      "outputId": 2,
      "inputModuleId": 35,
      "inputId": 2,
      "color": "#c91847"
    },
    {
      "id": 104,
      "outputModuleId": 19,
      "outputId": 3,
      "inputModuleId": 35,
      "inputId": 3,
      "color": "#0986ad"
    },
    {
      "id": 105,
      "outputModuleId": 9,
      "outputId": 1,
      "inputModuleId": 35,
      "inputId": 4,
      "color": "#c9b70e"
    },
    {
      "id": 106,
      "outputModuleId": 9,
      "outputId": 6,
      "inputModuleId": 35,
      "inputId": 5,
      "color": "#0c8e15"
    },
    {
      "id": 108,
      "outputModuleId": 35,
      "outputId": 0,
      "inputModuleId": 34,
      "inputId": 0,
      "color": "#0986ad"
    },
    {
      "id": 112,
      "outputModuleId": 26,
      "outputId": 0,
      "inputModuleId": 36,
      "inputId": 0,
      "color": "#0986ad"
    },
    {
      "id": 113,
      "outputModuleId": 26,
      "outputId": 1,
      "inputModuleId": 36,
      "inputId": 1,
      "color": "#c9b70e"
    },
    {
      "id": 114,
      "outputModuleId": 26,
      "outputId": 2,
      "inputModuleId": 36,
      "inputId": 2,
      "color": "#0c8e15"
    },
    {
      "id": 115,
      "outputModuleId": 26,
      "outputId": 3,
      "inputModuleId": 36,
      "inputId": 3,
      "color": "#c91847"
    },
    {
      "id": 116,
      "outputModuleId": 36,
      "outputId": 0,
      "inputModuleId": 32,
      "inputId": 0,
      "color": "#0986ad"
    },
    {
      "id": 117,
      "outputModuleId": 5,
      "outputId": 1,
      "inputModuleId": 36,
      "inputId": 4,
      "color": "#c9b70e"
    },
    {
      "id": 118,
      "outputModuleId": 5,
      "outputId": 6,
      "inputModuleId": 36,
      "inputId": 5,
      "color": "#0c8e15"
    },
    {
      "id": 122,
      "outputModuleId": 19,
      "outputId": 7,
      "inputModuleId": 37,
      "inputId": 0,
      "color": "#0c8e15"
    },
    {
      "id": 123,
      "outputModuleId": 19,
      "outputId": 6,
      "inputModuleId": 37,
      "inputId": 1,
      "color": "#c91847"
    },
    {
      "id": 124,
      "outputModuleId": 19,
      "outputId": 5,
      "inputModuleId": 37,
      "inputId": 2,
      "color": "#0986ad"
    },
    {
      "id": 154,
      "outputModuleId": 9,
      "outputId": 1,
      "inputModuleId": 42,
      "inputId": 2,
      "color": "#c9b70e"
    },
    {
      "id": 109,
      "outputModuleId": 34,
      "outputId": 0,
      "inputModuleId": 37,
      "inputId": 3,
      "color": "#c9b70e"
    },
    {
      "id": 182,
      "outputModuleId": 42,
      "outputId": 4,
      "inputModuleId": 39,
      "inputId": 3,
      "color": "#0986ad"
    },
    {
      "id": 160,
      "outputModuleId": 42,
      "outputId": 0,
      "inputModuleId": 39,
      "inputId": 5,
      "color": "#c91847"
    },
    {
      "id": 184,
      "outputModuleId": 42,
      "outputId": 5,
      "inputModuleId": 39,
      "inputId": 4,
      "color": "#0c8e15"
    },
    {
      "id": 185,
      "outputModuleId": 42,
      "outputId": 6,
      "inputModuleId": 39,
      "inputId": 2,
      "color": "#c91847"
    },
    {
      "id": 186,
      "outputModuleId": 9,
      "outputId": 0,
      "inputModuleId": 39,
      "inputId": 6,
      "color": "#0986ad"
    },
    {
      "id": 191,
      "outputModuleId": 37,
      "outputId": 0,
      "inputModuleId": 25,
      "inputId": 5,
      "color": "#c9b70e"
    },
    {
      "id": 197,
      "outputModuleId": 25,
      "outputId": 0,
      "inputModuleId": 46,
      "inputId": 0,
      "color": "#0986ad"
    },
    {
      "id": 198,
      "outputModuleId": 25,
      "outputId": 1,
      "inputModuleId": 46,
      "inputId": 1,
      "color": "#c9b70e"
    },
    {
      "id": 199,
      "outputModuleId": 46,
      "outputId": 0,
      "inputModuleId": 1,
      "inputId": 0,
      "color": "#c91847"
    },
    {
      "id": 200,
      "outputModuleId": 46,
      "outputId": 1,
      "inputModuleId": 1,
      "inputId": 1,
      "color": "#0986ad"
    },
    {
      "id": 201,
      "outputModuleId": 5,
      "outputId": 0,
      "inputModuleId": 47,
      "inputId": 0,
      "color": "#0c8e15"
    },
    {
      "id": 202,
      "outputModuleId": 5,
      "outputId": 0,
      "inputModuleId": 49,
      "inputId": 0,
      "color": "#c91847"
    },
    {
      "id": 204,
      "outputModuleId": 32,
      "outputId": 0,
      "inputModuleId": 25,
      "inputId": 2,
      "color": "#c91847"
    },
    {
      "id": 205,
      "outputModuleId": 48,
      "outputId": 0,
      "inputModuleId": 32,
      "inputId": 1,
      "color": "#0986ad"
    },
    {
      "id": 206,
      "outputModuleId": 50,
      "outputId": 1,
      "inputModuleId": 47,
      "inputId": 1,
      "color": "#c9b70e"
    },
    {
      "id": 207,
      "outputModuleId": 50,
      "outputId": 0,
      "inputModuleId": 49,
      "inputId": 1,
      "color": "#c91847"
    },
    {
      "id": 208,
      "outputModuleId": 50,
      "outputId": 0,
      "inputModuleId": 28,
      "inputId": 1,
      "color": "#0986ad"
    },
    {
      "id": 209,
      "outputModuleId": 50,
      "outputId": 2,
      "inputModuleId": 28,
      "inputId": 2,
      "color": "#c9b70e"
    },
    {
      "id": 210,
      "outputModuleId": 50,
      "outputId": 3,
      "inputModuleId": 49,
      "inputId": 2,
      "color": "#0c8e15"
    },
    {
      "id": 211,
      "outputModuleId": 50,
      "outputId": 3,
      "inputModuleId": 47,
      "inputId": 2,
      "color": "#c91847"
    },
    {
      "id": 212,
      "outputModuleId": 49,
      "outputId": 0,
      "inputModuleId": 51,
      "inputId": 0,
      "color": "#c9b70e"
    },
    {
      "id": 213,
      "outputModuleId": 47,
      "outputId": 0,
      "inputModuleId": 51,
      "inputId": 1,
      "color": "#0c8e15"
    },
    {
      "id": 214,
      "outputModuleId": 28,
      "outputId": 0,
      "inputModuleId": 51,
      "inputId": 2,
      "color": "#c91847"
    },
    {
      "id": 215,
      "outputModuleId": 51,
      "outputId": 0,
      "inputModuleId": 48,
      "inputId": 0,
      "color": "#0986ad"
    },
    {
      "id": 219,
      "outputModuleId": 52,
      "outputId": 2,
      "inputModuleId": 48,
      "inputId": 3,
      "color": "#0986ad"
    },
    {
      "id": 220,
      "outputModuleId": 52,
      "outputId": 3,
      "inputModuleId": 48,
      "inputId": 4,
      "color": "#c9b70e"
    },
    {
      "id": 221,
      "outputModuleId": 52,
      "outputId": 0,
      "inputModuleId": 48,
      "inputId": 5,
      "color": "#0c8e15"
    },
    {
      "id": 222,
      "outputModuleId": 52,
      "outputId": 1,
      "inputModuleId": 50,
      "inputId": 6,
      "color": "#c91847"
    },
    {
      "id": 223,
      "outputModuleId": 52,
      "outputId": 2,
      "inputModuleId": 50,
      "inputId": 9,
      "color": "#0986ad"
    },
    {
      "id": 178,
      "outputModuleId": 16,
      "outputId": 3,
      "inputModuleId": 34,
      "inputId": 1,
      "color": "#c91847"
    },
    {
      "id": 224,
      "outputModuleId": 52,
      "outputId": 2,
      "inputModuleId": 16,
      "inputId": 3,
      "color": "#0986ad"
    }
  ]
}