{
  "version": "1.1.6",
  "modules": [
    {
      "id": 55,
      "plugin": "VultModulesFree",
      "version": "1.15",
      "model": "Basal",
      "params": [
        {
          "id": 0,
          "value": 0.0
        },
        {
          "id": 1,
          "value": -0.335999966
        },
        {
          "id": 2,
          "value": 0.0825000033
        },
        {
          "id": 3,
          "value": 0.269999981
        },
        {
          "id": 4,
          "value": 0.598500073
        },
        {
          "id": 5,
          "value": -0.381000012
        }
      ],
      "leftModuleId": 57,
      "rightModuleId": 56,
      "pos": [
        24,
        1
      ]
    },
    {
      "id": 56,
      "plugin": "VultModulesFree",
      "version": "1.15",
      "model": "Basal",
      "params": [
        {
          "id": 0,
          "value": 0.0
        },
        {
          "id": 1,
          "value": -0.0150000397
        },
        {
          "id": 2,
          "value": 0.72450006
        },
        {
          "id": 3,
          "value": -0.653999925
        },
        {
          "id": 4,
          "value": 0.167999998
        },
        {
          "id": 5,
          "value": 0.423000008
        }
      ],
      "leftModuleId": 55,
      "rightModuleId": 64,
      "pos": [
        30,
        1
      ]
    },
    {
      "id": 57,
      "plugin": "VultModulesFree",
      "version": "1.15",
      "model": "Basal",
      "params": [
        {
          "id": 0,
          "value": 0.0
        },
        {
          "id": 1,
          "value": -0.2669999
        },
        {
          "id": 2,
          "value": 0.424500018
        },
        {
          "id": 3,
          "value": -0.509999931
        },
        {
          "id": 4,
          "value": 0.061499998
        },
        {
          "id": 5,
          "value": 0.408000022
        }
      ],
      "leftModuleId": 66,
      "rightModuleId": 55,
      "pos": [
        18,
        1
      ]
    },
    {
      "id": 58,
      "plugin": "Bogaudio",
      "version": "1.1.37",
      "model": "Bogaudio-EightFO",
      "params": [
        {
          "id": 0,
          "value": -1.17000055
        },
        {
          "id": 1,
          "value": 3.0
        },
        {
          "id": 2,
          "value": 0.0
        },
        {
          "id": 3,
          "value": 0.0
        },
        {
          "id": 4,
          "value": 0.0
        },
        {
          "id": 5,
          "value": 0.0
        },
        {
          "id": 6,
          "value": 0.0
        },
        {
          "id": 7,
          "value": 0.0
        },
        {
          "id": 8,
          "value": 0.0
        },
        {
          "id": 9,
          "value": 0.0
        },
        {
          "id": 10,
          "value": 0.0
        },
        {
          "id": 11,
          "value": 0.0
        },
        {
          "id": 12,
          "value": 0.0
        },
        {
          "id": 13,
          "value": 1.0
        },
        {
          "id": 14,
          "value": 0.0
        }
      ],
      "rightModuleId": 59,
      "data": {},
      "pos": [
        8,
        0
      ]
    },
    {
      "id": 59,
      "plugin": "Bogaudio",
      "version": "1.1.37",
      "model": "Bogaudio-EightFO",
      "params": [
        {
          "id": 0,
          "value": -2.84700108
        },
        {
          "id": 1,
          "value": 3.0
        },
        {
          "id": 2,
          "value": 0.0
        },
        {
          "id": 3,
          "value": -0.288000017
        },
        {
          "id": 4,
          "value": 0.309000015
        },
        {
          "id": 5,
          "value": 0.206999987
        },
        {
          "id": 6,
          "value": 0.333000004
        },
        {
          "id": 7,
          "value": 0.681000054
        },
        {
          "id": 8,
          "value": 0.393000126
        },
        {
          "id": 9,
          "value": 0.0
        },
        {
          "id": 10,
          "value": 0.0
        },
        {
          "id": 11,
          "value": 0.0
        },
        {
          "id": 12,
          "value": 0.0
        },
        {
          "id": 13,
          "value": 1.0
        },
        {
          "id": 14,
          "value": 0.0
        }
      ],
      "leftModuleId": 58,
      "rightModuleId": 86,
      "data": {},
      "pos": [
        25,
        0
      ]
    },
    {
      "id": 61,
      "plugin": "Core",
      "version": "1.1.6",
      "model": "AudioInterface",
      "params": [],
      "leftModuleId": 82,
      "data": {
        "audio": {
          "driver": 6,
          "deviceName": "Speakers (Realtek High Definition Audio)",
          "offset": 0,
          "maxChannels": 8,
          "sampleRate": 44100,
          "blockSize": 256
        }
      },
      "pos": [
        125,
        0
      ]
    },
    {
      "id": 62,
      "plugin": "Bogaudio",
      "version": "1.1.37",
      "model": "Bogaudio-Mix8",
      "params": [
        {
          "id": 0,
          "value": 0.846090436
        },
        {
          "id": 1,
          "value": 0.0
        },
        {
          "id": 2,
          "value": 0.0
        },
        {
          "id": 3,
          "value": 0.873090982
        },
        {
          "id": 4,
          "value": 0.0
        },
        {
          "id": 5,
          "value": -0.994000018
        },
        {
          "id": 6,
          "value": 0.877590835
        },
        {
          "id": 7,
          "value": 0.0
        },
        {
          "id": 8,
          "value": 1.0
        },
        {
          "id": 9,
          "value": 0.8895908
        },
        {
          "id": 10,
          "value": 0.0
        },
        {
          "id": 11,
          "value": 0.0
        },
        {
          "id": 12,
          "value": 0.988590598
        },
        {
          "id": 13,
          "value": 0.0
        },
        {
          "id": 14,
          "value": 0.0
        },
        {
          "id": 15,
          "value": 0.900090873
        },
        {
          "id": 16,
          "value": 0.0
        },
        {
          "id": 17,
          "value": 0.0
        },
        {
          "id": 18,
          "value": 0.979591429
        },
        {
          "id": 19,
          "value": 0.0
        },
        {
          "id": 20,
          "value": 0.0
        },
        {
          "id": 21,
          "value": 0.840090871
        },
        {
          "id": 22,
          "value": 0.0
        },
        {
          "id": 23,
          "value": 0.0
        },
        {
          "id": 24,
          "value": 0.900000155
        },
        {
          "id": 25,
          "value": 0.0
        },
        {
          "id": 26,
          "value": 0.0
        }
      ],
      "rightModuleId": 68,
      "data": {
        "dim_decibels": 12.0,
        "poly_channel_offset": -1
      },
      "pos": [
        71,
        0
      ]
    },
    {
      "id": 63,
      "plugin": "VultModulesFree",
      "version": "1.15",
      "model": "Tangents",
      "params": [
        {
          "id": 0,
          "value": 0.492000073
        },
        {
          "id": 1,
          "value": 0.217500001
        },
        {
          "id": 2,
          "value": 0.288000047
        },
        {
          "id": 3,
          "value": 0.216000065
        },
        {
          "id": 4,
          "value": 0.42900008
        },
        {
          "id": 5,
          "value": 0.134999931
        },
        {
          "id": 6,
          "value": 0.0
        }
      ],
      "leftModuleId": 64,
      "rightModuleId": 65,
      "pos": [
        42,
        1
      ]
    },
    {
      "id": 64,
      "plugin": "Fundamental",
      "version": "1.4.0",
      "model": "Unity",
      "params": [
        {
          "id": 0,
          "value": 0.0
        },
        {
          "id": 1,
          "value": 0.0
        }
      ],
      "leftModuleId": 56,
      "rightModuleId": 63,
      "data": {
        "merge": false
      },
      "pos": [
        36,
        1
      ]
    },
    {
      "id": 65,
      "plugin": "AudibleInstruments",
      "version": "1.5.0",
      "model": "Rings",
      "params": [
        {
          "id": 0,
          "value": 0.0
        },
        {
          "id": 1,
          "value": 0.0
        },
        {
          "id": 2,
          "value": 30.0
        },
        {
          "id": 3,
          "value": 0.639500022
        },
        {
          "id": 4,
          "value": 0.651500225
        },
        {
          "id": 5,
          "value": 0.623000145
        },
        {
          "id": 6,
          "value": 0.666499913
        },
        {
          "id": 7,
          "value": -0.113999978
        },
        {
          "id": 8,
          "value": 0.0
        },
        {
          "id": 9,
          "value": 0.0
        },
        {
          "id": 10,
          "value": 0.0599998832
        },
        {
          "id": 11,
          "value": -0.159000039
        }
      ],
      "leftModuleId": 63,
      "rightModuleId": 70,
      "data": {
        "polyphony": 2,
        "model": 4,
        "easterEgg": false
      },
      "pos": [
        52,
        1
      ]
    },
    {
      "id": 66,
      "plugin": "AudibleInstruments",
      "version": "1.5.0",
      "model": "Marbles",
      "params": [
        {
          "id": 0,
          "value": 0.0
        },
        {
          "id": 1,
          "value": 0.0
        },
        {
          "id": 2,
          "value": 0.5
        },
        {
          "id": 3,
          "value": 0.0
        },
        {
          "id": 4,
          "value": 0.5
        },
        {
          "id": 5,
          "value": 0.0
        },
        {
          "id": 6,
          "value": 0.0
        },
        {
          "id": 7,
          "value": 0.0
        },
        {
          "id": 8,
          "value": 0.665000141
        },
        {
          "id": 9,
          "value": 0.5
        },
        {
          "id": 10,
          "value": 0.0
        },
        {
          "id": 11,
          "value": 0.0
        },
        {
          "id": 12,
          "value": 0.0
        },
        {
          "id": 13,
          "value": 0.0794999972
        },
        {
          "id": 14,
          "value": 0.5
        }
      ],
      "rightModuleId": 57,
      "data": {
        "t_deja_vu": false,
        "x_deja_vu": false,
        "t_mode": 0,
        "x_mode": 0,
        "t_range": 1,
        "x_range": 1,
        "external": false,
        "x_scale": 0,
        "y_divider_index": 8,
        "x_clock_source_internal": 0
      },
      "pos": [
        0,
        1
      ]
    },
    {
      "id": 68,
      "plugin": "Valley",
      "version": "1.1.7",
      "model": "Plateau",
      "params": [
        {
          "id": 0,
          "value": 1.0
        },
        {
          "id": 1,
          "value": 0.579499841
        },
        {
          "id": 2,
          "value": 0.0112499995
        },
        {
          "id": 3,
          "value": 10.0
        },
        {
          "id": 4,
          "value": 10.0
        },
        {
          "id": 5,
          "value": 0.5
        },
        {
          "id": 6,
          "value": 10.0
        },
        {
          "id": 7,
          "value": 0.549950004
        },
        {
          "id": 8,
          "value": 10.0
        },
        {
          "id": 9,
          "value": 10.0
        },
        {
          "id": 10,
          "value": 0.0
        },
        {
          "id": 11,
          "value": 0.5
        },
        {
          "id": 12,
          "value": 0.5
        },
        {
          "id": 13,
          "value": 0.0
        },
        {
          "id": 14,
          "value": 0.0
        },
        {
          "id": 15,
          "value": 0.0
        },
        {
          "id": 16,
          "value": 0.0
        },
        {
          "id": 17,
          "value": 0.0
        },
        {
          "id": 18,
          "value": 0.0
        },
        {
          "id": 19,
          "value": 0.0
        },
        {
          "id": 20,
          "value": 0.0
        },
        {
          "id": 21,
          "value": 0.0
        },
        {
          "id": 22,
          "value": 0.0
        },
        {
          "id": 23,
          "value": 0.0
        },
        {
          "id": 24,
          "value": 0.0
        },
        {
          "id": 25,
          "value": 0.0
        },
        {
          "id": 26,
          "value": 0.0
        },
        {
          "id": 27,
          "value": 0.0
        },
        {
          "id": 28,
          "value": 0.0
        },
        {
          "id": 29,
          "value": 0.0
        },
        {
          "id": 30,
          "value": 1.0
        }
      ],
      "leftModuleId": 62,
      "rightModuleId": 82,
      "data": {
        "frozen": false,
        "freezeToggle": false,
        "panelStyle": 0,
        "tuned": 0,
        "diffuseInput": 1,
        "preDelayCVSens": 0,
        "inputSensitivity": 0,
        "outputSaturation": 0
      },
      "pos": [
        98,
        0
      ]
    },
    {
      "id": 69,
      "plugin": "AudibleInstruments",
      "version": "1.5.0",
      "model": "Plaits",
      "params": [
        {
          "id": 0,
          "value": 0.0
        },
        {
          "id": 1,
          "value": 0.0
        },
        {
          "id": 2,
          "value": 0.0
        },
        {
          "id": 3,
          "value": 0.5
        },
        {
          "id": 4,
          "value": 0.5
        },
        {
          "id": 5,
          "value": 0.5
        },
        {
          "id": 6,
          "value": 0.0
        },
        {
          "id": 7,
          "value": 0.0
        },
        {
          "id": 8,
          "value": 0.08699999
        },
        {
          "id": 9,
          "value": 0.5
        },
        {
          "id": 10,
          "value": 0.5
        }
      ],
      "leftModuleId": 70,
      "rightModuleId": 90,
      "data": {
        "lowCpu": false,
        "model": 2
      },
      "pos": [
        74,
        1
      ]
    },
    {
      "id": 70,
      "plugin": "ML_modules",
      "version": "1.1.3",
      "model": "Quantum",
      "params": [
        {
          "id": 0,
          "value": 0.0
        },
        {
          "id": 1,
          "value": 0.0
        },
        {
          "id": 2,
          "value": 0.0
        },
        {
          "id": 3,
          "value": 0.0
        },
        {
          "id": 4,
          "value": 0.0
        },
        {
          "id": 5,
          "value": 0.0
        },
        {
          "id": 6,
          "value": 0.0
        },
        {
          "id": 7,
          "value": 0.0
        },
        {
          "id": 8,
          "value": 0.0
        },
        {
          "id": 9,
          "value": 0.0
        },
        {
          "id": 10,
          "value": 0.0
        },
        {
          "id": 11,
          "value": 0.0
        }
      ],
      "leftModuleId": 65,
      "rightModuleId": 69,
      "data": {
        "scale": [
          1,
          0,
          0,
          0,
          1,
          0,
          0,
          1,
          0,
          0,
          0,
          0
        ],
        "mode": 1,
        "transpose_select": 1,
        "toggle_mode": 0
      },
      "pos": [
        66,
        1
      ]
    },
    {
      "id": 71,
      "plugin": "VultModulesFree",
      "version": "1.15",
      "model": "Trummor",
      "params": [
        {
          "id": 0,
          "value": 0.800499856
        },
        {
          "id": 1,
          "value": 0.132999986
        },
        {
          "id": 2,
          "value": 0.0
        },
        {
          "id": 3,
          "value": 0.219499961
        },
        {
          "id": 4,
          "value": 0.197000012
        },
        {
          "id": 5,
          "value": 0.0
        },
        {
          "id": 6,
          "value": 0.0500000007
        },
        {
          "id": 7,
          "value": 0.0500000007
        },
        {
          "id": 8,
          "value": -0.0101999994
        },
        {
          "id": 9,
          "value": 0.395000011
        },
        {
          "id": 10,
          "value": 1.81799984
        },
        {
          "id": 11,
          "value": -0.699999988
        },
        {
          "id": 12,
          "value": 0.0
        },
        {
          "id": 13,
          "value": 0.0
        },
        {
          "id": 14,
          "value": 0.0
        },
        {
          "id": 15,
          "value": 0.0
        },
        {
          "id": 16,
          "value": 0.0749999955
        },
        {
          "id": 17,
          "value": 0.582000434
        },
        {
          "id": 18,
          "value": 0.2040001
        },
        {
          "id": 19,
          "value": 2.0
        },
        {
          "id": 20,
          "value": 5.0
        }
      ],
      "leftModuleId": 72,
      "pos": [
        16,
        2
      ]
    },
    {
      "id": 72,
      "plugin": "ML_modules",
      "version": "1.1.3",
      "model": "SeqSwitch",
      "params": [
        {
          "id": 0,
          "value": 8.0
        },
        {
          "id": 1,
          "value": 0.0
        },
        {
          "id": 2,
          "value": 0.0
        },
        {
          "id": 3,
          "value": 0.0
        },
        {
          "id": 4,
          "value": 0.0
        },
        {
          "id": 5,
          "value": 0.0
        },
        {
          "id": 6,
          "value": 0.0
        },
        {
          "id": 7,
          "value": 0.0
        },
        {
          "id": 8,
          "value": 0.0
        }
      ],
      "rightModuleId": 71,
      "data": {
        "inputRange": 0
      },
      "pos": [
        8,
        2
      ]
    },
    {
      "id": 76,
      "plugin": "Fundamental",
      "version": "1.4.0",
      "model": "VCO",
      "params": [
        {
          "id": 0,
          "value": 1.0
        },
        {
          "id": 1,
          "value": 1.0
        },
        {
          "id": 2,
          "value": 0.0
        },
        {
          "id": 3,
          "value": 0.0
        },
        {
          "id": 4,
          "value": 0.0
        },
        {
          "id": 5,
          "value": 0.5
        },
        {
          "id": 6,
          "value": 0.0
        }
      ],
      "pos": [
        65,
        2
      ]
    },
    {
      "id": 77,
      "plugin": "Core",
      "version": "1.1.6",
      "model": "MIDIToCVInterface",
      "params": [],
      "data": {
        "channels": 6,
        "polyMode": 1,
        "clockDivision": 24,
        "lastPitch": 8192,
        "lastMod": 0,
        "midi": {
          "driver": 4,
          "deviceName": "MPKmini2 0",
          "channel": -1
        }
      },
      "pos": [
        56,
        2
      ]
    },
    {
      "id": 78,
      "plugin": "VultModulesFree",
      "version": "1.15",
      "model": "Rescomb",
      "params": [
        {
          "id": 0,
          "value": 0.149999961
        },
        {
          "id": 1,
          "value": -0.26000008
        },
        {
          "id": 2,
          "value": 0.30854997
        },
        {
          "id": 3,
          "value": 0.197999999
        },
        {
          "id": 4,
          "value": 0.270000011
        }
      ],
      "leftModuleId": 80,
      "pos": [
        89,
        2
      ]
    },
    {
      "id": 79,
      "plugin": "Fundamental",
      "version": "1.4.0",
      "model": "ADSR",
      "params": [
        {
          "id": 0,
          "value": 0.265999913
        },
        {
          "id": 1,
          "value": 0.237000003
        },
        {
          "id": 2,
          "value": 0.487999797
        },
        {
          "id": 3,
          "value": 0.479000121
        }
      ],
      "pos": [
        76,
        2
      ]
    },
    {
      "id": 80,
      "plugin": "Fundamental",
      "version": "1.4.0",
      "model": "VCA-1",
      "params": [
        {
          "id": 0,
          "value": 1.0
        },
        {
          "id": 1,
          "value": 1.0
        }
      ],
      "rightModuleId": 78,
      "pos": [
        86,
        2
      ]
    },
    {
      "id": 82,
      "plugin": "Bogaudio",
      "version": "1.1.37",
      "model": "Bogaudio-Mix4",
      "params": [
        {
          "id": 0,
          "value": 0.909090936
        },
        {
          "id": 1,
          "value": -1.0
        },
        {
          "id": 2,
          "value": 0.0
        },
        {
          "id": 3,
          "value": 0.909090936
        },
        {
          "id": 4,
          "value": 1.0
        },
        {
          "id": 5,
          "value": 0.0
        },
        {
          "id": 6,
          "value": 0.769589901
        },
        {
          "id": 7,
          "value": 0.0
        },
        {
          "id": 8,
          "value": 0.0
        },
        {
          "id": 9,
          "value": 0.909090936
        },
        {
          "id": 10,
          "value": 0.0
        },
        {
          "id": 11,
          "value": 0.0
        },
        {
          "id": 12,
          "value": 0.909090936
        },
        {
          "id": 13,
          "value": 0.0
        },
        {
          "id": 14,
          "value": 0.0
        }
      ],
      "leftModuleId": 68,
      "rightModuleId": 61,
      "data": {
        "dim_decibels": 12.0,
        "poly_channel_offset": -1
      },
      "pos": [
        110,
        0
      ]
    },
    {
      "id": 84,
      "plugin": "voxglitch",
      "version": "1.25.0",
      "model": "wavbank",
      "params": [
        {
          "id": 0,
          "value": 0.149499953
        },
        {
          "id": 1,
          "value": 1.0
        },
        {
          "id": 2,
          "value": 0.0
        }
      ],
      "leftModuleId": 85,
      "rightModuleId": 87,
      "data": {
        "path": "C:\\Users\\eecke\\Music"
      },
      "pos": [
        52,
        0
      ]
    },
    {
      "id": 85,
      "plugin": "AS",
      "version": "1.0.4",
      "model": "Cv2T",
      "params": [
        {
          "id": 0,
          "value": 0.0
        },
        {
          "id": 1,
          "value": 0.0
        },
        {
          "id": 2,
          "value": 0.0
        },
        {
          "id": 3,
          "value": 0.0
        }
      ],
      "leftModuleId": 86,
      "rightModuleId": 84,
      "pos": [
        48,
        0
      ]
    },
    {
      "id": 86,
      "plugin": "AudibleInstruments",
      "version": "1.5.0",
      "model": "Branches",
      "params": [
        {
          "id": 0,
          "value": 0.0455002487
        },
        {
          "id": 1,
          "value": 0.5
        },
        {
          "id": 2,
          "value": 0.0
        },
        {
          "id": 3,
          "value": 0.0
        }
      ],
      "leftModuleId": 59,
      "rightModuleId": 85,
      "data": {
        "modes": [
          false,
          false
        ]
      },
      "pos": [
        42,
        0
      ]
    },
    {
      "id": 87,
      "plugin": "voxglitch",
      "version": "1.25.0",
      "model": "wavbank",
      "params": [
        {
          "id": 0,
          "value": 0.579000115
        },
        {
          "id": 1,
          "value": 1.0
        },
        {
          "id": 2,
          "value": 1.0
        }
      ],
      "leftModuleId": 84,
      "data": {
        "path": "C:\\Users\\eecke\\Music"
      },
      "pos": [
        61,
        0
      ]
    },
    {
      "id": 88,
      "plugin": "Bogaudio",
      "version": "1.1.37",
      "model": "Bogaudio-FourFO",
      "params": [
        {
          "id": 0,
          "value": -1.18950009
        },
        {
          "id": 1,
          "value": 3.0
        },
        {
          "id": 2,
          "value": 1.0
        },
        {
          "id": 3,
          "value": 0.0
        },
        {
          "id": 4,
          "value": 0.0
        },
        {
          "id": 5,
          "value": 0.970000207
        },
        {
          "id": 6,
          "value": 0.949000001
        },
        {
          "id": 7,
          "value": 0.0
        },
        {
          "id": 8,
          "value": 0.0
        },
        {
          "id": 9,
          "value": 0.0
        },
        {
          "id": 10,
          "value": 0.0
        }
      ],
      "leftModuleId": 89,
      "rightModuleId": 94,
      "data": {},
      "pos": [
        93,
        1
      ]
    },
    {
      "id": 89,
      "plugin": "Fundamental",
      "version": "1.4.0",
      "model": "VCA-1",
      "params": [
        {
          "id": 0,
          "value": 1.0
        },
        {
          "id": 1,
          "value": 1.0
        }
      ],
      "rightModuleId": 88,
      "pos": [
        90,
        1
      ]
    },
    {
      "id": 90,
      "plugin": "Bogaudio",
      "version": "1.1.37",
      "model": "Bogaudio-UMix",
      "params": [],
      "leftModuleId": 69,
      "data": {
        "clipping_mode": 0,
        "input_gain_db": 0.0,
        "sum": true
      },
      "pos": [
        86,
        1
      ]
    },
    {
      "id": 91,
      "plugin": "voxglitch",
      "version": "1.25.0",
      "model": "wavbank",
      "params": [
        {
          "id": 0,
          "value": 0.207000017
        },
        {
          "id": 1,
          "value": 0.827500045
        },
        {
          "id": 2,
          "value": 0.0
        }
      ],
      "leftModuleId": 92,
      "data": {
        "path": "C:\\Users\\eecke\\Music\\watts"
      },
      "pos": [
        131,
        1
      ]
    },
    {
      "id": 92,
      "plugin": "AS",
      "version": "1.0.4",
      "model": "ZeroCV2T",
      "params": [
        {
          "id": 0,
          "value": 0.0
        },
        {
          "id": 1,
          "value": 0.0
        },
        {
          "id": 2,
          "value": 0.0
        },
        {
          "id": 3,
          "value": 0.0
        }
      ],
      "leftModuleId": 93,
      "rightModuleId": 91,
      "pos": [
        127,
        1
      ]
    },
    {
      "id": 93,
      "plugin": "CountModula",
      "version": "1.14.0",
      "model": "Chances",
      "params": [
        {
          "id": 0,
          "value": 0.235999584
        },
        {
          "id": 1,
          "value": 1.0
        }
      ],
      "leftModuleId": 94,
      "rightModuleId": 92,
      "data": {
        "moduleVersion": 1.10000002,
        "theme": 0
      },
      "pos": [
        123,
        1
      ]
    },
    {
      "id": 94,
      "plugin": "ImpromptuModular",
      "version": "1.1.10",
      "model": "Clocked",
      "params": [
        {
          "id": 0,
          "value": 115.0
        },
        {
          "id": 1,
          "value": 0.0
        },
        {
          "id": 2,
          "value": -8.0
        },
        {
          "id": 3,
          "value": 0.0
        },
        {
          "id": 4,
          "value": 0.0
        },
        {
          "id": 5,
          "value": 0.0
        },
        {
          "id": 6,
          "value": 0.0419999994
        },
        {
          "id": 7,
          "value": 0.0
        },
        {
          "id": 8,
          "value": 0.5
        },
        {
          "id": 9,
          "value": 0.5
        },
        {
          "id": 10,
          "value": 0.5
        },
        {
          "id": 11,
          "value": 0.5
        },
        {
          "id": 12,
          "value": 0.0
        },
        {
          "id": 13,
          "value": 0.0
        },
        {
          "id": 14,
          "value": 0.0
        },
        {
          "id": 15,
          "value": 0.0
        },
        {
          "id": 16,
          "value": 0.0
        },
        {
          "id": 17,
          "value": 0.0
        },
        {
          "id": 18,
          "value": 0.0
        },
        {
          "id": 19,
          "value": 0.0
        }
      ],
      "leftModuleId": 88,
      "rightModuleId": 93,
      "data": {
        "panelTheme": 0,
        "running": true,
        "displayDelayNoteMode": true,
        "bpmDetectionMode": false,
        "resetOnStartStop": 0,
        "ppqn": 4,
        "resetClockOutputsHigh": true,
        "momentaryRunInput": true,
        "clockMaster": false
      },
      "pos": [
        103,
        1
      ]
    }
  ],
  "cables": [
    {
      "id": 235,
      "outputModuleId": 58,
      "outputId": 0,
      "inputModuleId": 59,
      "inputId": 1,
      "color": "#c91847"
    },
    {
      "id": 236,
      "outputModuleId": 58,
      "outputId": 1,
      "inputModuleId": 59,
      "inputId": 2,
      "color": "#0986ad"
    },
    {
      "id": 237,
      "outputModuleId": 58,
      "outputId": 2,
      "inputModuleId": 59,
      "inputId": 3,
      "color": "#c9b70e"
    },
    {
      "id": 238,
      "outputModuleId": 58,
      "outputId": 3,
      "inputModuleId": 59,
      "inputId": 4,
      "color": "#0c8e15"
    },
    {
      "id": 239,
      "outputModuleId": 58,
      "outputId": 4,
      "inputModuleId": 59,
      "inputId": 5,
      "color": "#c91847"
    },
    {
      "id": 240,
      "outputModuleId": 58,
      "outputId": 5,
      "inputModuleId": 59,
      "inputId": 6,
      "color": "#0986ad"
    },
    {
      "id": 247,
      "outputModuleId": 59,
      "outputId": 4,
      "inputModuleId": 57,
      "inputId": 2,
      "color": "#c9b70e"
    },
    {
      "id": 248,
      "outputModuleId": 59,
      "outputId": 5,
      "inputModuleId": 55,
      "inputId": 2,
      "color": "#0c8e15"
    },
    {
      "id": 249,
      "outputModuleId": 59,
      "outputId": 2,
      "inputModuleId": 56,
      "inputId": 2,
      "color": "#c91847"
    },
    {
      "id": 250,
      "outputModuleId": 59,
      "outputId": 1,
      "inputModuleId": 57,
      "inputId": 1,
      "color": "#0986ad"
    },
    {
      "id": 251,
      "outputModuleId": 59,
      "outputId": 0,
      "inputModuleId": 55,
      "inputId": 1,
      "color": "#c9b70e"
    },
    {
      "id": 252,
      "outputModuleId": 59,
      "outputId": 5,
      "inputModuleId": 56,
      "inputId": 1,
      "color": "#0c8e15"
    },
    {
      "id": 256,
      "outputModuleId": 56,
      "outputId": 0,
      "inputModuleId": 64,
      "inputId": 0,
      "color": "#c91847"
    },
    {
      "id": 257,
      "outputModuleId": 55,
      "outputId": 0,
      "inputModuleId": 64,
      "inputId": 2,
      "color": "#0986ad"
    },
    {
      "id": 258,
      "outputModuleId": 57,
      "outputId": 0,
      "inputModuleId": 64,
      "inputId": 4,
      "color": "#c9b70e"
    },
    {
      "id": 259,
      "outputModuleId": 64,
      "outputId": 0,
      "inputModuleId": 63,
      "inputId": 0,
      "color": "#0c8e15"
    },
    {
      "id": 260,
      "outputModuleId": 63,
      "outputId": 0,
      "inputModuleId": 62,
      "inputId": 2,
      "color": "#c91847"
    },
    {
      "id": 262,
      "outputModuleId": 59,
      "outputId": 5,
      "inputModuleId": 63,
      "inputId": 4,
      "color": "#c9b70e"
    },
    {
      "id": 263,
      "outputModuleId": 58,
      "outputId": 4,
      "inputModuleId": 63,
      "inputId": 5,
      "color": "#0c8e15"
    },
    {
      "id": 264,
      "outputModuleId": 59,
      "outputId": 1,
      "inputModuleId": 63,
      "inputId": 3,
      "color": "#c91847"
    },
    {
      "id": 265,
      "outputModuleId": 63,
      "outputId": 0,
      "inputModuleId": 65,
      "inputId": 7,
      "color": "#0986ad"
    },
    {
      "id": 266,
      "outputModuleId": 65,
      "outputId": 0,
      "inputModuleId": 62,
      "inputId": 5,
      "color": "#c9b70e"
    },
    {
      "id": 267,
      "outputModuleId": 65,
      "outputId": 1,
      "inputModuleId": 62,
      "inputId": 8,
      "color": "#0c8e15"
    },
    {
      "id": 268,
      "outputModuleId": 59,
      "outputId": 3,
      "inputModuleId": 65,
      "inputId": 3,
      "color": "#c91847"
    },
    {
      "id": 269,
      "outputModuleId": 59,
      "outputId": 0,
      "inputModuleId": 65,
      "inputId": 4,
      "color": "#0986ad"
    },
    {
      "id": 270,
      "outputModuleId": 58,
      "outputId": 4,
      "inputModuleId": 65,
      "inputId": 0,
      "color": "#c9b70e"
    },
    {
      "id": 253,
      "outputModuleId": 62,
      "outputId": 0,
      "inputModuleId": 68,
      "inputId": 0,
      "color": "#c91847"
    },
    {
      "id": 254,
      "outputModuleId": 62,
      "outputId": 1,
      "inputModuleId": 68,
      "inputId": 1,
      "color": "#0986ad"
    },
    {
      "id": 273,
      "outputModuleId": 66,
      "outputId": 0,
      "inputModuleId": 69,
      "inputId": 5,
      "color": "#0986ad"
    },
    {
      "id": 274,
      "outputModuleId": 66,
      "outputId": 5,
      "inputModuleId": 70,
      "inputId": 0,
      "color": "#c9b70e"
    },
    {
      "id": 275,
      "outputModuleId": 70,
      "outputId": 0,
      "inputModuleId": 69,
      "inputId": 7,
      "color": "#0c8e15"
    },
    {
      "id": 276,
      "outputModuleId": 69,
      "outputId": 0,
      "inputModuleId": 62,
      "inputId": 11,
      "color": "#c91847"
    },
    {
      "id": 277,
      "outputModuleId": 58,
      "outputId": 2,
      "inputModuleId": 69,
      "inputId": 4,
      "color": "#0986ad"
    },
    {
      "id": 278,
      "outputModuleId": 59,
      "outputId": 0,
      "inputModuleId": 69,
      "inputId": 3,
      "color": "#c9b70e"
    },
    {
      "id": 279,
      "outputModuleId": 66,
      "outputId": 1,
      "inputModuleId": 72,
      "inputId": 9,
      "color": "#0c8e15"
    },
    {
      "id": 281,
      "outputModuleId": 72,
      "outputId": 0,
      "inputModuleId": 62,
      "inputId": 17,
      "color": "#0c8e15"
    },
    {
      "id": 282,
      "outputModuleId": 71,
      "outputId": 0,
      "inputModuleId": 72,
      "inputId": 0,
      "color": "#0986ad"
    },
    {
      "id": 283,
      "outputModuleId": 66,
      "outputId": 1,
      "inputModuleId": 71,
      "inputId": 0,
      "color": "#c91847"
    },
    {
      "id": 284,
      "outputModuleId": 71,
      "outputId": 0,
      "inputModuleId": 72,
      "inputId": 1,
      "color": "#0986ad"
    },
    {
      "id": 285,
      "outputModuleId": 59,
      "outputId": 2,
      "inputModuleId": 71,
      "inputId": 3,
      "color": "#c9b70e"
    },
    {
      "id": 286,
      "outputModuleId": 59,
      "outputId": 3,
      "inputModuleId": 71,
      "inputId": 4,
      "color": "#0c8e15"
    },
    {
      "id": 287,
      "outputModuleId": 77,
      "outputId": 0,
      "inputModuleId": 76,
      "inputId": 0,
      "color": "#c91847"
    },
    {
      "id": 290,
      "outputModuleId": 77,
      "outputId": 1,
      "inputModuleId": 79,
      "inputId": 4,
      "color": "#0c8e15"
    },
    {
      "id": 291,
      "outputModuleId": 77,
      "outputId": 6,
      "inputModuleId": 79,
      "inputId": 5,
      "color": "#c91847"
    },
    {
      "id": 292,
      "outputModuleId": 79,
      "outputId": 0,
      "inputModuleId": 80,
      "inputId": 0,
      "color": "#0986ad"
    },
    {
      "id": 293,
      "outputModuleId": 76,
      "outputId": 0,
      "inputModuleId": 80,
      "inputId": 1,
      "color": "#0c8e15"
    },
    {
      "id": 294,
      "outputModuleId": 80,
      "outputId": 0,
      "inputModuleId": 78,
      "inputId": 1,
      "color": "#c91847"
    },
    {
      "id": 296,
      "outputModuleId": 77,
      "outputId": 0,
      "inputModuleId": 78,
      "inputId": 0,
      "color": "#c9b70e"
    },
    {
      "id": 271,
      "outputModuleId": 68,
      "outputId": 0,
      "inputModuleId": 82,
      "inputId": 2,
      "color": "#0c8e15"
    },
    {
      "id": 272,
      "outputModuleId": 68,
      "outputId": 1,
      "inputModuleId": 82,
      "inputId": 5,
      "color": "#c91847"
    },
    {
      "id": 301,
      "outputModuleId": 78,
      "outputId": 0,
      "inputModuleId": 62,
      "inputId": 23,
      "color": "#0986ad"
    },
    {
      "id": 302,
      "outputModuleId": 59,
      "outputId": 0,
      "inputModuleId": 78,
      "inputId": 2,
      "color": "#c9b70e"
    },
    {
      "id": 303,
      "outputModuleId": 58,
      "outputId": 4,
      "inputModuleId": 78,
      "inputId": 3,
      "color": "#0c8e15"
    },
    {
      "id": 305,
      "outputModuleId": 85,
      "outputId": 0,
      "inputModuleId": 84,
      "inputId": 0,
      "color": "#c9b70e"
    },
    {
      "id": 308,
      "outputModuleId": 86,
      "outputId": 2,
      "inputModuleId": 85,
      "inputId": 0,
      "color": "#c9b70e"
    },
    {
      "id": 309,
      "outputModuleId": 66,
      "outputId": 0,
      "inputModuleId": 86,
      "inputId": 0,
      "color": "#0c8e15"
    },
    {
      "id": 310,
      "outputModuleId": 87,
      "outputId": 0,
      "inputModuleId": 62,
      "inputId": 20,
      "color": "#c91847"
    },
    {
      "id": 311,
      "outputModuleId": 85,
      "outputId": 1,
      "inputModuleId": 87,
      "inputId": 0,
      "color": "#0986ad"
    },
    {
      "id": 312,
      "outputModuleId": 84,
      "outputId": 1,
      "inputModuleId": 78,
      "inputId": 4,
      "color": "#0c8e15"
    },
    {
      "id": 317,
      "outputModuleId": 88,
      "outputId": 1,
      "inputModuleId": 89,
      "inputId": 0,
      "color": "#0986ad"
    },
    {
      "id": 318,
      "outputModuleId": 89,
      "outputId": 0,
      "inputModuleId": 82,
      "inputId": 8,
      "color": "#0c8e15"
    },
    {
      "id": 316,
      "outputModuleId": 78,
      "outputId": 1,
      "inputModuleId": 90,
      "inputId": 0,
      "color": "#c91847"
    },
    {
      "id": 319,
      "outputModuleId": 84,
      "outputId": 0,
      "inputModuleId": 90,
      "inputId": 1,
      "color": "#c91847"
    },
    {
      "id": 320,
      "outputModuleId": 90,
      "outputId": 0,
      "inputModuleId": 89,
      "inputId": 1,
      "color": "#0986ad"
    },
    {
      "id": 321,
      "outputModuleId": 59,
      "outputId": 3,
      "inputModuleId": 88,
      "inputId": 7,
      "color": "#c9b70e"
    },
    {
      "id": 322,
      "outputModuleId": 82,
      "outputId": 0,
      "inputModuleId": 61,
      "inputId": 0,
      "color": "#0c8e15"
    },
    {
      "id": 323,
      "outputModuleId": 82,
      "outputId": 1,
      "inputModuleId": 61,
      "inputId": 1,
      "color": "#c91847"
    },
    {
      "id": 326,
      "outputModuleId": 91,
      "outputId": 0,
      "inputModuleId": 62,
      "inputId": 14,
      "color": "#0c8e15"
    },
    {
      "id": 328,
      "outputModuleId": 92,
      "outputId": 0,
      "inputModuleId": 91,
      "inputId": 0,
      "color": "#0986ad"
    },
    {
      "id": 332,
      "outputModuleId": 88,
      "outputId": 0,
      "inputModuleId": 91,
      "inputId": 1,
      "color": "#0986ad"
    },
    {
      "id": 333,
      "outputModuleId": 93,
      "outputId": 1,
      "inputModuleId": 92,
      "inputId": 0,
      "color": "#c9b70e"
    },
    {
      "id": 336,
      "outputModuleId": 94,
      "outputId": 0,
      "inputModuleId": 66,
      "inputId": 2,
      "color": "#0986ad"
    },
    {
      "id": 337,
      "outputModuleId": 94,
      "outputId": 2,
      "inputModuleId": 93,
      "inputId": 0,
      "color": "#0c8e15"
    }
  ]
}